<?xml version="1.0" encoding="UTF-8"?>
<svg id="Layer_2" data-name="Layer 2" xmlns="http://www.w3.org/2000/svg" viewBox="0 0 752.9 985.49">
  <defs>
    <style>
      .cls-1 {
        fill: #010101;
      }

      .cls-2 {
        fill: #fefefd;
      }

      .cls-3 {
        fill: #fcdd2f;
      }
    </style>
  </defs>
  <path class="cls-3" d="M181.88,269.93c-.29-.32-.57-1.93-1.38-2.84-18.34-20.61-38.26-42.01-56.67-63.4-5.62-6.53-14.8-15.84-18.8-22.65-2.12-3.6-2.2-8.48-1.36-12.49.1-.47,1-.53,1.25-1.03,1.59-3.24,4.96-8.47,9.04-7.52.54.13.63,1.18,1.29,1.56,8.59,4.89,14.98,9.99,22.64,15.93.94.73,7.02,4.34,7.44,4.94.3.44-.04,1.55.19,1.76.47.41,2.1-.26,2.57.18.23.21-.12,1.32.22,1.73s4.5,1.87,5.07,2.43c10.31,10.25,24.29,17.93,35.51,27.84l10.53,5.68c1.25-2.74-1.28-4.25-1.34-4.5-2-9.13-5.24-18.1-8.17-27.34-7.83-24.72-15.42-49.87-24.28-75.55-7.17-20.79-15.01-41.68-20.18-64.83-.11-.51-1.2-.41-1.32-.92-.45-1.88-.19-10.31.14-12.53.47-3.11,5.17-11.27,8.89-11.32.21,0,2.77,2.77,2.88,2.94.47.76,1.31,4.14,1.77,4.98,6.43,11.78,12.47,23.77,17.57,35.04,10.73,23.7,21.96,47.61,33.57,71.17,3.93,7.97,8.33,16.14,11.97,24.07,4.98,10.84,11.19,21.33,16.19,32.38,3.25,7.19,5.04,14.79,9.16,21.05.36.55,2.08,2.52,1.71-.02.79,6.94,5.53,10.24,6.6,13.97,1.22,4.24.84,11.68,1.6,16.62,4.58,29.88,14.44,63.55,35.29,86.12,7.94,8.6,24.36,23.09,36.78,19.9,15.29-3.93,43.41-19.21,55.3-29.68,10.25-9.03,19.89-23.63,26.41-35.65,3.76-6.92,7.99-19.26,12.7-24.74,3.17-3.69,6.81-6.76,10.08-10.65,12.65-15.08,23.58-29.85,36.41-44.53,23.61-27.02,51.13-51.17,76.88-74.71,14.68-13.41,28.07-25.7,43.73-37.85,7.95-6.17,16.48-14.38,26.01-16.42.55-.12.17-1.23,1.43-1.39,1.57-.21,7.95-.23,9.35.07.17.04,2.42,2.15,2.53,2.29,2.01,2.73-.33,2.98-.48,3.31-3.39,7.71-10.89,15.05-16.19,21.88-.94,1.21-4.84,3.92-4.19,5.49.03.06.89.06,1.25.57,2.54,3.6.74,2.16.09,3.4-2.46,4.74-4.87,5.75-8.11,9.46-8.1,9.27-15.12,17.9-23.04,27.23-31.19,36.77-61.8,76.51-91.64,114.4-12.04,15.28-23.12,29.93-35.14,44.82-.67.83-3.57,3-3.81,3.42-.41.76.04,2.04-.3,2.43-.22.26-1.32-.07-1.73.22-.51.36-.45,1.62-1.11,2.33-10.45,11.31-21.19,22.98-30.81,34.78l-8.06,8.61c2.98.47,4.2-2.82,5.91-4.01,7.31-5.06,23.41-13.15,31.63-16.45,1.68-.68,2.44-.73,4.1-1.32.33-.12,4.02-3.21,5.33-4.08,22.86-15.14,42.21-32.93,64.17-49.64,7.89-6.01,15.86-10.96,23.53-16.44,11.25-8.03,20.88-14.42,33.37-20.12.66-.3,3.49-2.53,3.73-2.59,1.69-.42,13.97-.35,16.1-.07.42.06,4.85,2.34,5.51,2.73,2.82,1.68,4.82,2.29,3.34,6.6-.34.99-13.03,12.93-14.91,14.71-20.88,19.84-42,38.45-62.84,58.61-10.58,10.24-20.59,21.61-31.65,31.43-7.22,6.41-14,16.73-20.17,24.68-3.28,4.23-6.86,7.03-10.23,11.31-1.38,1.75-3.52,6.27-4.55,7.62-.91,1.2-3.38,2.29-3.83,4.25,2.7,1.02,4.68-2.06,5.6-2.49,41.11-19.43,83.27-37.11,125.01-53.05,15.32-5.85,32.52-12.81,46.55-15.94,10.24-2.28,19.01-2.47,27.34,2.91,3.38,2.18,6.12,2.05,4.36,7.68-.38,1.22-2.94,1.41-3.59,1.77-16.89,9.42-34.49,19.1-52.06,28.01-30.07,15.25-58.91,30.23-90.01,47.1-14.8,8.03-28.98,16.96-43.49,25.61-2.82,1.68-2.02.82-4.7,1.78-1.37.49-7.97,6.86-10.73,6.77l-11.01,7.87c1.91-.26,4.51.4,6.28-.01,8.15-1.91,16.41-2.84,25.6-4.19,14.01-2.05,28.18-5.48,42-7.91,28.84-5.06,59.17-10.97,86.9-16.29,9.65-1.85,19.98-4.22,29.72-5.35,2.64-.31,11.33-.39,13.14,1.07.23.19,3.22,3.64,3.45,3.98.61.92.39,1.85.71,2.53.29.61,1.14.56,1.25,1.02.43,1.8.78,6.66.7,8.6s-.71,4.77-2.58,5.67c-4.63,2.23-12.59,3.71-17.78,5.55-22.38,7.97-42.04,14.65-63.12,21.33-17.55,5.56-35.43,10.68-52.92,16.53-14.43,4.83-26.56,9.73-41.75,14.92l-4.62,2.46c11.08,2.01,22.22.91,33.38,1.36,54.01,2.19,108.7,3.13,162.55,6.73,10.19.68,23.16-3.42,21.24,12.15-7.52.24-15.11-.33-22.62-.03-68.04,2.67-136.98.56-204.33,6.77-3.04.28-6.39-.33-9.4.04-1.6.2-3.17,1.76-5.1,1.32l3.24,2.63c7.74.15,11.68,7.98,17.55,10.78,9.94,4.75,21.14,7.37,30.25,11.1,6.21,2.54,14.76,5.31,21.58,8.1s15.15,6.19,22.37,9.13c2.86,1.16,6.76,1.84,9.24,3.42.21.14,3.34,3.41,3.48,3.62.35.55.04,1.47.26,1.94.31.67,1.12.56,1.26,1.04.36,1.26,1.48,6.81,1.44,7.95-.08,2.39-1.57,3.98-1.44,6.37-2.75-.11-5.63.31-8.36,0-21.87-2.52-47.07-10.85-67.64-16-10.35-2.59-21.66-5.45-32.72-8.4l-9.95-3.22c-1.36-3.58-4.85-10.63-8.06-12.52-6.89-4.06-19.58-8.25-27.47-11.65-5.37-2.32-10.3-5.76-16.14-6.79-4.31-.76-13.81-.01-16.7-1.51-1.12-.58-13.86-9.51-14.42-10.2-.38-.47-2.76-8.75-3.74-10.77-2.32-4.81-6.53-12.19-12.62-12.01.4-1.41,2.18-1.41,3.35-1.7,30.13-7.5,60.18-7.03,85.68-28.3,9.03-7.53,7.63-11.09,7.44-22.3-.02-1.4-.82-2.93-.71-4.01.13-1.3,4.34-5.53,4.05-5.74l-35.07,6.06c-1.65-1.59,10.81-10.56,12.15-11.79,1.48-1.36,7.22-8.24,7.76-8.44,1.61-.6.8,2.52,2,2.66,2.23-1.37,14.63-6.32,15.12-7.84.32-1.02-1.85-8.35-2.61-9.35-3.59-4.69-6.6.43-7.43-.32l-4.91-24.44c-3.55-6.16-6.6-5.95-9.37.37-3.26,7.41-.46,14.89-5,21.31-4.03,5.69-13.28,14.24-19.24,17.86-.84.51-1.47,1.32-2.62,1.08-.51-.5,1.56-3.08,2.04-3.69,4.47-5.66,10.49-10.98,14.04-17.66,2.89-5.46,1.61-21.62.71-28.15-1.75-12.66-9.33-7.21-13.22.8-3.24,6.67-2.85,14-5.25,20.39-1.33,3.55-15.13,19.04-18.55,21.92-6.81,5.76-21.03,11.56-29.96,10.39-12.3-1.62,1.81-14.81,4.6-18.88,1.84-2.68,7.08-11.64,7.17-14.47.28-9.06-5.51-14.44-13.99-9.21-4.62,2.85-5.85,6.94-8.99,10.57-11.05,12.78-25.87,21.04-34.25,35.9-6.61,11.72-6.92,24.01-7.66,37.2-7.21,3.09-13.96,7.23-21.29,10.07-7.9,3.06-19.18,4.55-25.99,7.74-7.84,3.67-19.95,13.35-28.2,18.34-36.43,22.04-79.68,43.41-117.97,62.45-8.02,3.99-17.34,8.8-24.82,12.07-4.89,2.14-12.72,5.34-17.88,4.1-.51-.12-.42-1.21-.92-1.32-1.29-.29-2.9.17-4.45-.16-2.16-.46-8.4-3.57-9.64-5.51-1.81-2.85-1.83-3.44-.02-6.23,3.32-5.09,16.62-13.66,21.83-17.56,8.82-6.62,17.88-13.9,26.46-19.79,18.95-13,40.28-27.57,59.8-39.69,39.42-24.46,86.46-39.08,113.13-79.77,14.39-21.95,18.02-37.79,8.5-63.03-8.65-22.95-21.03-30.89-36.78-47.54-16.44-17.38-32.9-35.5-48.89-53.3ZM589.7,117.95c1.69-1.92-.24-4.38-1.75-3.78-6.85,8.36-15.36,15.26-22.71,23.13-.76.81-1.78,3.24-3.03,4.59-36.47,39.1-73.95,79.45-108.51,118.94-5.51,6.3-11.76,11.76-14.86,19.9,5.6-2.55,11.14-7.24,15.28-11.69,10.99-11.81,20.53-23.82,31.29-35.67,10.87-11.97,24.56-24.78,34.1-37.52,1.77-2.37,5.33-7.69,6.77-8.94s3.97-1.81,6.02-4.24c18.07-21.31,38.71-41.87,55.57-63.54.43-.55,1.42-.72,1.82-1.17ZM196.72,257.78c-.7-1.07-1.67-3.08-2.95-4.5-16.7-18.46-33.39-37.19-52.7-52.83-1.19-.96-6.13-6.4-6.57-6.55-3.13-1.09-3.62-.3-2.91,2.54.55,2.21,8.45,10.77,10.53,13.06,16.25,17.95,33.86,34.16,50.56,51.66,18.27,19.15,37.44,43.71,57.32,61.06.71.62,4.57,3.8,5.06,3.7,2.84-.6-1.62-6.07-2.36-7.07-13.6-18.27-34.48-38.44-50.22-55.68-1.28-1.4-5.09-4.39-5.74-5.39ZM564.96,466.23c-2.25.25-4.98-.33-7.13-.05-.93.12-7.34,2.55-8.17,2.74-8.15,1.84-17.18,2.83-25.99,5.47-17.37,5.21-37.7,7.78-55.32,13.61-2.84.94-5.82,3.63-3.04,6.4,1.01,1.01,7.31.5,8.82.15,12.46-2.81,28.61-7.87,41.23-10.81,15.85-3.69,31.32-8.18,46.73-13.31,2.94-.98,3.22,1.42,2.87-4.2ZM417.26,551.9c.29-1.17-.48-1.35-1.01-2.03-9.06-11.73-11.53-14.21-26.09-17.75-9.22-2.24-27.55-7.2-13.38,7.99,5.01,5.37,9.33,5.5,15.33,8.28,1.18.55,4.27,3.51,5.26,3.51h19.9ZM89.48,564.72c-3.58-.81-6.63,3.52-9.03,5.12-5.98,3.97-14.53,8.56-19.76,12.64-.5.39-4.77,4.75-4.26,5.17,2.55.46,4.1-.43,6.23-1.37,9.27-4.11,19.93-11.52,28.83-16.84,18.86-11.27,39.32-22.8,56.79-35.59.26-.19,1.28,1.34,1.89-1.51-2.35-1.76-27.71,10.42-31.61,12.56-9.52,5.23-18.65,12.3-28.02,17.88-.74.47-.98,1.09-1.08,1.93Z"/>
  <path class="cls-3" d="M131.97,696.26c1.19.73,1.55.08,2.36-.62,14.94-12.78,29.55-29.87,44.16-43.58,10.3-9.66,20.89-19.33,32.16-27.87s23.1-14.96,33.59-23.06c21.04-16.24,43.61-37.15,63.76-54.95,10.22-9.03,19.02-20.31,31.36-26.65.73,2.01.12,4.24.4,6.33.88,6.39,5.91,28.59,9.09,33.41.78,1.18,4.01,3.65,5.36,4.76,4.82,3.97,10.46,6.99,15.14,11.16-6.21-.66-18.28-4.08-23.16-7.86-3.64-2.82-5.06-10.55-10.21-14.08-3.7-2.54-11.61-3.52-10.33,2.88.43,2.16,4.32,9.57,5.6,11.98.81,1.54,2.86,5.2,3.67,6.44,6.18,9.38,18.09,12.61,27.24,17.96,15.64,9.14,30.64,19.56,46.5,28.37,3.29,1.08,11.06,0,14.66-.83-1.14,4.24,1.32,3.85,2.48,5.61,8.19,12.44,18.63,24.82,28.26,36.47,36.2,46.53,74.56,91.34,112.29,136.81,13.11,15.8,27.61,31.45,37.87,48.95.32.54,1.97.51,2.42,1.98.89,2.87-.11,9.61-1.3,12.48-.24.58-.96.65-1.19,1.12-.47.94-2.62,5.87-2.88,6.08-.54.45-2.36-.14-2.6.09s.27,2.46,0,2.7c-.21.19-1.55-.22-2.17.02s-.51,1.19-.99,1.31c-.84.2-3.08.2-3.97.07-1.22-.18-.79-1.11-1.48-1.38-.62-.24-1.95.17-2.17-.03-.27-.26.34-2.04-.11-2.59-.11-.13-2.2-.62-3.11-1.24-2.01-1.36-9.13-7.95-11.37-9.94-11.01-9.78-20.66-20.1-31.52-30.51-52.11-49.96-101.72-101.54-152.42-152.45-3.07-3.09-6.29-6.13-9.55-9,.06,1.79,1.08,5.29,1.76,6.87,15.75,36.54,33.15,73.78,49.6,110.06,5.35,11.8,9.34,22.26,14.18,34.73,1.28,3.29,5.77,11.93,6.27,14.08.16.7.16,4.72,0,4.89-.33.33-6.71,1.55-7.89,1.16-1.31-.43-7.54-14.1-8.76-16.47-19.32-37.58-37.34-74.46-59.09-110.95-10.94-18.36-22.65-35.46-33.47-53.65-1.15-1.94-2.89-4.27-2.72-6.25-1.58-.08-1.19-.22-1.35,1-.18,1.42-.15,3.95,0,5.4.75,7.02,3.36,14.85,3.97,21.66.48,5.37-.62,11.77.02,16.84.16,1.29,1.29.64,1.46,1.93,1.12,8.89,1.25,17.14,2.68,26.32,3.2,20.45,7.5,40.43,10.79,59.36,3.57,20.53,9.03,40.91,10.72,61.46.24,2.87.54,10.93.06,13.42-.16.83-1.58.07-2.21.4s-.5,1.17-1,1.3c-.89.23-2.04-.09-3.07.18-3.48.89-6.19,3-8.77-1.02-1.35-4.31-2.37-9.06-2.52-13.52-4.59-13.69-8.42-28.33-12.8-43.63-12.28-42.85-24.06-85.89-40.13-127.49-27.16,57.11-59.11,111.79-90.16,166.84-1.87,3.32-3.47,7.37-5.28,10.57-5.68,10.05-11.74,19.75-17.51,28.83-2.88,4.54-5.92,10.85-9.25,14.85-2.1,2.52-2.74,2.59-5.38,3.77-.23.1-.29.89-.76,1.05-7.37,2.5-15.9,1.52-23.25.02-3.43-3.1-7.29-3.05-5.88-8.95.12-.51,1.21-.4,1.32-.92,3.92-17.9,10.88-35.24,17.32-51.03,5.6-13.74,10.54-27.68,16.41-41.6,14.39-34.12,30.06-67.76,44.51-101.86-1.27-.29-1.6.72-2.36,1.34-19.56,16.16-41.35,41.48-59.69,60.04-15.34,15.53-30.26,31.12-45.24,46.81-6.18,6.47-14.16,17.85-23.85,16.56-.57-.08-5.01-1.51-5.17-1.73-2.25-2.98,1.83-5.55,2.99-7.17,6.39-8.88,11.6-15.82,18.63-23.97,1.22-1.41,1.24-3.11,3.01-4.62.4-.34,1.45-.13,1.64-.34.44-.52-.22-2.08.21-2.55.21-.23,1.33.11,1.73-.22.32-.26.76-2.35,1.58-3.37,8.61-10.71,19.37-22.23,28.34-32.36,1.75-1.97,6.89-5.63,6.69-7.97l41.81-46.54c-3.98.26-6.55,4.57-9.28,6.75-12.53,9.97-24.46,19.34-35.9,30.35-3.05,2.94-9.89,6.95-13.32,9.9-5.14,4.43-13.39,10.88-17.93,15.7-.68.72-.33,1.81-.5,1.97-.44.4-2.59-.14-3.62.12-1.2.3-1.87,1.14-3.37,1.36-3.54.5-11-.41-14.37-1.59-.2-.07-2.82-2.78-2.86-2.98-.65-3.48,1.7-3.74,2.49-5.11,5.02-8.7,8.45-12.88,14.99-20.58,5.85-6.89,12.19-14.39,17.8-20.83,1.89-2.17,8.01-6.33,7.88-8.98ZM356.14,597.52c-4.75-4.68-16.2-14.5-22.83-15.28-3.96-.46-8.11-.51-7.82,4.39.21,3.46,1.91,3,3.41,4.74,4.79,5.58,10.82,12.76,18.89,12.48.62,1.91-1.5,1.15-1.93,2.43-.36,1.05-.21,2.61.26,3.63.37.81,9.55,7.42,10.85,8.03,3,1.4,13.34,2.37,16.8,2.1,1-.08,1.95.53,1.67-1-6.24-7.32-12.44-14.75-19.29-21.51ZM394.85,643.17c-2.23-1.03-2,.23-1.11,1.93,5.91,11.28,27.77,31.02,37.4,41.31,7.94,8.48,11.92,13.81,21.31,21.38,1.95,1.57,3.07,4.71,5.94,4,1.02-4.22-1.11-3.8-2.66-5.92-9.63-13.24-23.52-25.52-34.81-37.53-4.84-5.15-9.01-11.23-14.5-16.21-3.83-3.48-6.29-4.23-9.86-6.67-.46-.31-1.57-2.21-1.71-2.28ZM187.28,825.1c-6.15,12.07-14.93,25.38-20.15,38.34-1.16,2.89-2.3,10.11,1.03,4.61.47-.77,1.35-4.24,1.8-4.96,1.4-2.24,2.33-2.7,3.6-5.83,3.84-9.43,10.51-21.28,15.07-30.14,16.54-32.19,37.75-66.75,51.84-99.6,1.71-3.99,3.21-8.13,4.14-12.38-5.68,5.59-9.39,14.35-13.18,21.56-15.3,29.13-29.21,59.08-44.14,88.4Z"/>
  <path class="cls-1" d="M95.55,587.65c38.29-19.04,81.54-40.42,117.97-62.45,8.25-4.99,20.36-14.67,28.2-18.34,6.81-3.19,18.09-4.67,25.99-7.74,7.33-2.84,14.09-6.98,21.29-10.07.74-13.19,1.05-25.48,7.66-37.2,8.38-14.86,23.2-23.11,34.25-35.9,3.14-3.63,4.37-7.72,8.99-10.57,8.47-5.22,14.27.15,13.99,9.21-.09,2.83-5.33,11.79-7.17,14.47-2.79,4.07-16.9,17.27-4.6,18.88,8.93,1.17,23.15-4.62,29.96-10.39,3.41-2.89,17.22-18.37,18.55-21.92,2.39-6.39,2.01-13.71,5.25-20.39,3.88-8.01,11.47-13.46,13.22-.8.9,6.53,2.19,22.69-.71,28.15-3.54,6.68-9.57,12.01-14.04,17.66-.48.61-2.55,3.19-2.04,3.69,1.14.23,1.78-.57,2.62-1.08,5.96-3.61,15.22-12.17,19.24-17.86,4.54-6.41,1.74-13.89,5-21.31,2.78-6.32,5.83-6.53,9.37-.37l4.91,24.44c.83.75,3.85-4.37,7.43.32.76.99,2.93,8.33,2.61,9.35-.49,1.52-12.89,6.47-15.12,7.84-1.2-.14-.4-3.26-2-2.66-.54.2-6.28,7.08-7.76,8.44-1.33,1.23-13.8,10.21-12.15,11.79l35.07-6.06c.28.21-3.92,4.43-4.05,5.74-.11,1.08.69,2.61.71,4.01.19,11.2,1.59,14.76-7.44,22.3-25.51,21.27-55.55,20.81-85.68,28.3-1.17.29-2.95.29-3.35,1.7,6.08-.18,10.29,7.2,12.62,12.01.98,2.02,3.35,10.3,3.74,10.77.56.69,13.29,9.62,14.42,10.2,2.9,1.49,12.4.75,16.7,1.51,5.84,1.03,10.77,4.47,16.14,6.79,7.88,3.4,20.58,7.59,27.47,11.65,3.2,1.89,6.7,8.93,8.06,12.52,6.62,17.47,1.14,31.4-17.54,35.75-3.6.84-11.37,1.91-14.66.83-15.87-8.81-30.86-19.23-46.5-28.37-9.15-5.35-21.06-8.58-27.24-17.96-.81-1.23-2.86-4.9-3.67-6.44-1.27-2.41-5.16-9.82-5.6-11.98-1.28-6.4,6.63-5.41,10.33-2.88,5.15,3.53,6.57,11.26,10.21,14.08,4.88,3.78,16.95,7.2,23.16,7.86-4.69-4.17-10.33-7.18-15.14-11.16-1.35-1.11-4.58-3.57-5.36-4.76-3.18-4.82-8.21-27.02-9.09-33.41-.29-2.09.33-4.33-.4-6.33-12.33,6.35-21.13,17.62-31.36,26.65-20.15,17.8-42.72,38.71-63.76,54.95-10.49,8.1-22.88,14.95-33.59,23.06-11.28,8.54-21.86,18.2-32.16,27.87-14.61,13.7-29.22,30.79-44.16,43.58-.82.7-1.17,1.35-2.36.62l-27.65-80.95c11.22-7.46,23.8-15.81,35.28-23.74,4.38-3.02,18.46-12.54,20.73-16.36,2.94-4.95-5.01-5.65-8.62-4.57-6.5,1.95-21.38,11.97-27.78,16.06-6.79,4.34-14.93,11.39-21.56,14.89-1.08.57-1.49,1.29-2.78.23.02-4.34-2.96-9.88-4.05-14.17ZM391.29,443.97v.67c.44-.22.44-.45,0-.67ZM425.35,471.63l-11.78,8.11-3.05,4.03c5.33-2.77,14.62-5.03,14.83-12.14Z"/>
  <path class="cls-1" d="M86.11,553.25c-1.17-8.65-4.27-16.95-5.89-25.48-9.23-48.56-11.7-111.24,10.49-156.44,12.93-26.33,32.33-44.75,50.94-66.77l40.23-34.64c15.99,17.8,32.45,35.92,48.89,53.3,15.75,16.65,28.12,24.58,36.78,47.54,9.52,25.24,5.89,41.08-8.5,63.03-26.67,40.69-73.71,55.31-113.13,79.77-19.52,12.11-40.85,26.68-59.8,39.69Z"/>
  <path class="cls-1" d="M422.65,263.18c-4.71,5.48-8.94,17.82-12.7,24.74-6.52,12.01-16.16,26.61-26.41,35.65-11.89,10.48-40.01,25.76-55.3,29.68-12.42,3.19-28.84-11.3-36.78-19.9-20.85-22.57-30.71-56.24-35.29-86.12-.76-4.93-.38-12.38-1.6-16.62-1.07-3.73-5.81-7.03-6.6-13.97-.63-5.51.54-13.73,2.7-18.89,2.3-5.5,9.27-16.39,13.81-20.25s6.27-3.68,11.82-4.71c1.09-.2,1.78.4,3.02-.68,1.11-.96,3.88-6.45,5.2-8.3,24.92-35.11,54.38-61.17,98.29-35.14,14.76,8.75,26.04,18.33,35,33.13,20.32,33.6,18.51,62.71,5.02,98.53-.28.75-1.37,2.41-.17,2.86Z"/>
  <path class="cls-1" d="M337.68,802.17c-8.83,31.06-27.52,59.97-57.76,73.43-22.61,10.06-37.38,7.04-58.26-4.95-8.24-4.73-13.42-11.53-19.55-18.56,1.81-3.21,3.41-7.26,5.28-10.57,31.05-55.04,62.99-109.73,90.16-166.84,16.06,41.6,27.85,84.64,40.13,127.49Z"/>
  <path class="cls-3" d="M560.91,29.1c1.53,1,.47,4.71-.07,6.21-.09.26-1.08,2.1-1.48,3.03-2.29,5.31-5.33,10.31-7.83,15.62-22.75,48.49-50.64,95.65-82.63,139.48-.6.82-1.95,1.52-2.63,2.45-3.03,4.17-6.03,10.56-9.23,14.34-3.57,4.22-9.47,4.61-14.27,2.28-2.62-1.27-2.21-5-1.75-7.52,1.73-9.52,10.76-21.43,15.74-29.09,15.5-23.87,31.36-45.95,46.37-69.36,14.2-22.14,26.8-44.27,40.16-65.86,2.35-3.8,4.67-7.69,6.83-11.58,1.66,0,10.34-.29,10.79,0Z"/>
  <path class="cls-3" d="M52.22,160.18c.22.09,1.26,1.96,1.73,2.27,25.69,17.21,50.94,38.32,75.01,58.88,9.22,7.87,17.99,14.81,26.58,23.34,9.42,9.36,17.6,15.4,15.6,30.36-.15,1.14-.98.77-1.35,1.51-.22.43.12,1.4-.2,1.98-.18.33-3.26,1.81-3.87,1.94-4.26.9-8.2-4.09-11.18-6.49-8.14-6.57-11.85-12.04-18.81-19.29-20.67-21.52-42.37-42.57-64.51-62.62-4.65-4.21-10.49-8.63-15.59-13.25-.92-.83-6.91-6.4-7.09-6.86-.98-2.54-1.26-13.86,3.68-11.77Z"/>
  <path class="cls-3" d="M250.67,197.75c-1.07-1.53-2.18-4.65-2.67-6.44-1.49-5.5-2.68-11.56-4.03-17.56-3.79-16.91-7.06-32.28-9.53-50.51-.65-4.79-2.6-12.95-2.69-17.61s4.51-15.95,8.16-19.37c.14-.14,3.07-2.2,3.27-2.25,4.72-1.25,5.04,3.73,6.2,6.62,3.79,9.43,7.55,19.72,10.67,29.39,4.96,15.41,10.76,31.34,14.93,47.56.14.55,1.18.43,1.31.94.31,1.25-.14,2.92.02,4.25-5.55,1.02-7.25.83-11.82,4.71s-11.51,14.75-13.81,20.25Z"/>
  <path class="cls-3" d="M638.92,269.51c3.77,1.68.53,5.45-1.47,7.18-29.45,25.49-58.07,52.14-89.18,75.99-5.26,4.03-9.85,8.7-16.08,11.63-.7.33-4.36,2.1-4.62,2.13-2.24.29-12.8.35-14.74-.07-.19-.04-2.75-2.49-2.84-2.66-2.24-4.54,1.46-4.17,3.45-5.7,5.43-4.19,10.87-9.23,16.19-13.49,27.3-21.88,55.28-42.28,83.63-63.41,3.75-2.79,8.99-8.2,12.92-10.48,3.23-1.87,9.26-2.67,12.74-1.13Z"/>
  <path class="cls-3" d="M644.37,137.24c.15.05,1.86,2.16,1.92,2.44.57,2.52-2.11,3.29-3.32,4.94-17.4,23.8-39.62,45.38-60.19,66.9-6.59,6.89-12.2,14.49-19.46,21.01-8.86,7.97-15.53,15.36-28.42,13.83-1.1-.13-1.17-1.19-2.19-1.86-2.09-1.38-3.82-.11-2.81-4.44.07-.31,3.17-2.77,3.73-3.45,10.37-12.5,23.31-22.98,34.94-34.19,22.4-21.58,44.74-43.06,66.68-65.19,1.38-.46,7.7-.45,9.1,0Z"/>
  <path class="cls-3" d="M69.68,25.32c.25.15,3.74,3.64,4.06,4.01,8.97,10.41,18.67,22.55,26.99,33.71,6.35,8.52,26.51,37.98,28.53,47.48.22,1.03-.21,2.21,0,3.14.16.69,1.23.15,1.37.77.34,1.54-1.15.67-1.36,1.46-.85,3.22-.46,4.65-2.52,8.13-2.18,3.68-4.39,4.25-8,1.93-2.36-1.52-7.78-9.94-9.75-12.68-10.37-14.41-18.85-30.21-28.06-45.58-5.26-8.78-12.11-18-16.62-27.29-1.34-2.76-2.96-5.9-2.55-8.99,2.18-2.84,3.17-8.91,7.9-6.1Z"/>
  <path class="cls-3" d="M528.36,550.09c6.97,3.24,39.02,5.63,49.08,6.52,16.79,1.5,34.08,1.32,50.61,4.02,1.7.28,3.59-.25,5.21.06,1.07.21,5.95,7.69,4.53,9.42-4.01-.55-7.29.65-11.1,1.37l-105.78-.05c-.71-1.74-4.36-2.06-5.66-2.89-2.21-1.42-7.66-9.93-8.14-12.42-.79-4.07-.99-7.19,3.51-7.64,1.74-.17,16.83,1.19,17.73,1.6Z"/>
  <path class="cls-3" d="M99.6,601.82c1.28,1.07,1.7.34,2.78-.23,6.63-3.5,14.77-10.55,21.56-14.89,6.4-4.09,21.28-14.11,27.78-16.06,3.61-1.08,11.56-.38,8.62,4.57-2.27,3.83-16.36,13.34-20.73,16.36-11.49,7.93-24.06,16.28-35.28,23.74-24.77,16.48-50.85,33.91-76.01,49.44-1.06.66-4.01,3.47-5.1,4.04-3.85,2.03-12.68,1-9.84-3.47.21-.33,1.57-.31,2.09-.77,8.57-7.51,19.01-13.38,27.75-21.3,2.81-2.55,2.73-2.06,5.79-3.35,1.63-.69,6.27-5.13,7.95-6.34,13.07-9.41,25.92-18.19,38.87-28.07,2.01-1.53,3.76-.3,3.78-3.66Z"/>
  <path class="cls-1" d="M157.6,757.65c18.33-18.56,40.12-43.88,59.69-60.04.76-.63,1.09-1.64,2.36-1.34-14.44,34.1-30.12,67.74-44.51,101.86l-17.54-40.47Z"/>
  <path class="cls-3" d="M204.67,52.19c.44.62,2.22,7.14,2.92,8.74,8.77,19.95,15.26,41.54,21.56,63.44.8,2.77,1.8,6.32,2.69,9.59,2.22,8.23,6.75,19.87,5.18,28.23-.68,3.62-4.73,9.49-8.79,8.56-2.2-.5-8.86-17.65-9.77-20.71-1.89-6.32-4.16-16.26-5.52-23.48-4.04-21.48-9.27-40.85-14.9-63.24-.14-.55-1.18-.44-1.31-.94-.68-2.72,1.13-10.44,4.51-10.89.89-.12,2.96.03,3.43.71Z"/>
  <path class="cls-3" d="M479.81,632.38c.13.05,1.23,1.82,1.78,2.21,4.09,2.84,9.02,5.56,12.97,8.66,1.08.85,3.83,4.55,4.5,4.91,3.4,1.86,1.61,1.27,2.93,2.29,19.23,14.81,37.8,30.79,56.6,45.8,7.3,5.83,14.36,10.87,21.73,16.64,3.65,2.86,9.69,6.66,10.12,11.47.02.25-1.04,4.75-1.22,4.93-1.5,1.4-2.96-1.25-3.49-1.56-10.62-6.13-24.73-15.91-34.77-23.83-1.8-1.42-5.94-6.62-6.39-6.76-1.27-.39-2.49.03-3.71-.41-.46-.16-6.12-5.6-7.12-6.33-16.26-11.78-35.73-24.7-50.22-39.31-3.91-3.94-9.3-6.93-10.22-13.23-.72-4.9,1.68-7.13,6.53-5.49Z"/>
  <path class="cls-3" d="M365.09,721.48c.18.11,2.66,2.73,2.85,3.01,6.02,9.17,10.2,20.71,13.64,31.27,2.91,8.96,7.54,19.66,10.66,28.05,4.59,12.36,9.06,26.13,13.76,38.7,3.63,9.71,8.41,19.39,10.59,29.12.12.52,1.27.42,1.37.89.31,1.54-2.12,7.77-3.83,8.26-3.17.91-2.61-2.03-2.98-2.76-3.9-7.58-8.32-15.88-11.86-23.72-7.86-17.42-14.53-35.93-21.87-54.56-.88-2.23-1.87-4.61-2.87-7.05-4.77-11.67-9.86-25.22-13.29-38.87-.15-.59-1.22-.21-1.38-1.44-.44-3.4-.3-14.28,5.21-10.91Z"/>
  <path class="cls-1" d="M144.79,727.29c11.44-11.01,23.37-20.39,35.9-30.35,2.73-2.17,5.31-6.49,9.28-6.75l-41.81,46.54c-.27-3.18-3.02-6.18-3.37-9.44Z"/>
  <path class="cls-1" d="M417.26,551.9h-19.9c-.99,0-4.08-2.97-5.26-3.51-6-2.78-10.32-2.9-15.33-8.28-14.17-15.19,4.16-10.23,13.38-7.99,14.56,3.54,17.04,6.01,26.09,17.75.53.68,1.3.86,1.01,2.03Z"/>
  <path class="cls-1" d="M196.72,257.78c.66,1,4.46,3.98,5.74,5.39,15.75,17.24,36.62,37.4,50.22,55.68.74,1,5.21,6.47,2.36,7.07-.49.1-4.35-3.08-5.06-3.7-19.88-17.35-39.05-41.91-57.32-61.06l4.05-3.37Z"/>
  <path class="cls-1" d="M89.48,564.72c.1-.84.34-1.46,1.08-1.93,9.37-5.58,18.5-12.65,28.02-17.88,3.9-2.14,29.26-14.33,31.61-12.56-.61,2.84-1.62,1.31-1.89,1.51-17.46,12.79-37.93,24.32-56.79,35.59-1.76.71-2.19-3.36-2.02-4.72Z"/>
  <path class="cls-2" d="M89.48,564.72c-.16,1.36.27,5.44,2.02,4.72-8.9,5.32-19.56,12.72-28.83,16.84-2.13.95-3.68,1.83-6.23,1.37-.52-.42,3.76-4.79,4.26-5.17,5.22-4.08,13.78-8.68,19.76-12.64,2.4-1.59,5.45-5.93,9.03-5.12Z"/>
  <path class="cls-1" d="M356.14,597.52c6.86,6.76,13.05,14.19,19.29,21.51.28,1.53-.67.92-1.67,1-3.46.27-13.79-.69-16.8-2.1-1.3-.61-10.48-7.22-10.85-8.03-.47-1.02-.62-2.58-.26-3.63.44-1.28,2.56-.52,1.93-2.43-8.06.28-14.09-6.9-18.89-12.48-1.5-1.74-3.2-1.28-3.41-4.74-.29-4.9,3.86-4.85,7.82-4.39,6.63.78,18.08,10.59,22.83,15.28ZM362.63,606.55l-10.79-1.35c.98,1.34,4.24,2.43,5.79,2.63s4.32.58,5-1.28Z"/>
  <path class="cls-1" d="M188.62,827.13c-.97-.29-1.34-1.04-1.35-2.02,14.93-29.32,28.84-59.27,44.14-88.4,3.79-7.21,7.49-15.97,13.18-21.56-.93,4.25-2.42,8.39-4.14,12.38-14.08,32.84-35.3,67.4-51.84,99.6Z"/>
  <path class="cls-3" d="M425.35,471.63c-.21,7.1-9.5,9.36-14.83,12.14l3.05-4.03,11.78-8.11Z"/>
  <path class="cls-3" d="M391.29,443.97c.44.22.44.45,0,.67v-.67Z"/>
  <path class="cls-3" d="M362.63,606.55c-.68,1.87-3.44,1.48-5,1.28s-4.8-1.29-5.79-2.63l10.79,1.35Z"/>
</svg>